<svg width="106" height="106" viewBox="0 0 106 106" fill="none" xmlns="http://www.w3.org/2000/svg">
<path fill-rule="evenodd" clip-rule="evenodd" d="M53 0C23.7289 0 0 23.7289 0 53C0 82.2711 23.7289 106 53 106C82.2711 106 106 82.2711 106 53C106 23.7289 82.2711 0 53 0ZM28.1206 63.1866L48.8415 29.0636C50.7923 25.8511 55.457 25.8587 57.3974 29.0774L77.9503 63.1708C81.4442 68.9663 75.4981 75.8537 69.2548 73.2428L55.0529 67.3038C53.8228 66.7894 52.4382 66.7876 51.2067 67.2988L36.7879 73.2849C30.5358 75.8805 24.607 68.9729 28.1206 63.1866Z" fill="#1B4AF0"/>
</svg>
