<svg width="106" height="106" viewBox="0 0 106 106" fill="none" xmlns="http://www.w3.org/2000/svg">
<path fill-rule="evenodd" clip-rule="evenodd" d="M53 0C23.7289 0 0 23.7289 0 53C0 82.2711 23.7289 106 53 106C82.2711 106 106 82.2711 106 53C106 23.7289 82.2711 0 53 0ZM24.5817 41.1273L33.4406 18.7666L38.3476 27.077C53.0485 19.015 71.6316 23.8925 80.419 38.3659C89.4519 53.2435 84.7137 72.6269 69.8361 81.6597C54.9585 90.6925 35.5755 85.9546 26.5425 71.0772L34.1402 66.4643C40.3938 76.7642 54.1222 79.8566 64.8036 73.3715C75.485 66.8864 79.0745 53.2794 72.821 42.9795C66.7845 33.0371 53.7831 29.8105 43.2805 35.4314L48.4401 44.1696L24.5817 41.1273Z" fill="#0E7F19"/>
</svg>
