<?xml version="1.0" encoding="UTF-8"?>
<svg id="Capa_2" data-name="Capa 2" xmlns="http://www.w3.org/2000/svg" viewBox="0 0 200 200">
  <defs>
    <style>
      .cls-1 {
        fill: #1b4af0;
      }
    </style>
  </defs>
  <g id="Capa_1-2" data-name="Capa 1">
    <path class="cls-1" d="M177.81,121.29c6.94,8.26,14.33,21.41,10.88,37.7-14.28,4.02-29.58,3.21-43.28-2.34-5.99-2.41-7.57-10.64-9.25-19.36-1.83-9.51-3.72-19.33-11.79-23.99-.25-.14-.51-.29-.78-.43l-9.04-4.63-.05,.26,.43,.72,.37,.62h0s4.05,6.86,4.05,6.86c6.7,11.34,8.09,36.43-.52,55.72-4.32,9.68-13.04,22.17-30.16,27.57-10.94-9.36-17.83-21.92-19.44-35.57-.72-5.96,6.25-11.34,13.65-17.04,8.04-6.2,16.35-12.6,16.71-21.32,.02-.28,.03-.56,.02-.85l-.15-9.42-.29,.06-.43,.64-.42,.63h0s-4.46,6.64-4.46,6.64c-7.35,10.95-29.64,24.55-52.85,27.43-11.28,1.39-27.4,.71-41.05-10.19,3.34-13.38,11.76-25.13,23.84-33.23,5.26-3.55,13.82-.7,22.89,2.33,9.87,3.29,20.06,6.69,28.48,2.63,.27-.13,.54-.26,.81-.41l8.89-4.86-.19-.15h0l-.9-.03-.83-.03-8.45-.23c-14.04-.37-38.03-11.31-52.34-28.33-6.94-8.26-14.33-21.41-10.89-37.7,14.29-4.02,29.59-3.21,43.29,2.34,5.98,2.41,7.57,10.65,9.25,19.37,1.83,9.5,3.72,19.31,11.78,23.97h0c.26,.15,.52,.3,.79,.43l9.04,4.62,.04-.25-.42-.71h0s-.37-.63-.37-.63l-4.07-6.86c-6.7-11.34-8.09-36.43,.52-55.72,4.32-9.68,13.04-22.17,30.16-27.57,10.93,9.35,17.83,21.92,19.45,35.57,.72,5.96-6.26,11.34-13.65,17.03-8.05,6.2-16.36,12.61-16.72,21.34-.02,.28-.03,.56-.02,.85l.15,9.41,.29-.06,.43-.64,.42-.63h0s4.46-6.63,4.46-6.63h0c7.34-10.96,29.63-24.56,52.85-27.44,11.27-1.39,27.4-.71,41.05,10.19-3.34,13.38-11.76,25.14-23.83,33.25-5.26,3.55-13.82,.69-22.89-2.34-9.87-3.29-20.06-6.7-28.47-2.64h0c-.28,.13-.55,.26-.82,.42l-8.88,4.86-.27,.14h.45s0,0,0,0l.88,.03,.82,.03h0l8.47,.22c14.03,.37,38.03,11.31,52.34,28.33Z"/>
  </g>
</svg>